<?xml version="1.0" standalone="no"?>
<!DOCTYPE svg PUBLIC "-//W3C//DTD SVG 20010904//EN"
 "http://www.w3.org/TR/2001/REC-SVG-20010904/DTD/svg10.dtd">
<svg version="1.0" xmlns="http://www.w3.org/2000/svg"
 width="700.000000pt" height="700.000000pt" viewBox="0 0 700.000000 700.000000"
 preserveAspectRatio="xMidYMid meet">
<metadata>
Created by potrace 1.11, written by Peter Selinger 2001-2013
</metadata>
<g transform="translate(0.000000,700.000000) scale(0.100000,-0.100000)"
fill="#000000" stroke="none">
<path d="M3260 6765 c-124 -91 -236 -173 -249 -182 -13 -10 -200 -145 -415
-301 -215 -157 -392 -285 -393 -286 -1 -1 31 -105 72 -231 41 -127 75 -233 75
-236 0 -3 -30 -18 -66 -34 -158 -69 -381 -207 -563 -349 -96 -75 -306 -273
-377 -356 -97 -114 -244 -318 -303 -420 -46 -80 -111 -205 -140 -270 -18 -41
-41 -93 -51 -115 -48 -109 -146 -445 -155 -537 -2 -21 -6 -42 -9 -47 -3 -4 -8
-30 -11 -57 -3 -27 -7 -65 -10 -84 -18 -136 -23 -379 -11 -552 6 -87 5 -97
-11 -102 -10 -2 -83 -19 -163 -36 -80 -17 -177 -38 -217 -47 l-72 -16 -5 -46
c-6 -45 -10 -87 -21 -206 -3 -33 -8 -76 -10 -95 -3 -19 -7 -60 -10 -90 -3 -30
-8 -71 -10 -90 -3 -19 -7 -64 -10 -100 -3 -36 -10 -101 -15 -145 -5 -44 -12
-102 -14 -130 -18 -178 -23 -225 -30 -285 -3 -19 -8 -66 -12 -105 -3 -38 -8
-81 -9 -95 -2 -14 -6 -56 -9 -95 -4 -38 -9 -79 -11 -90 -4 -18 10 -27 93 -64
53 -24 126 -57 162 -74 36 -16 191 -85 345 -154 352 -157 324 -144 428 -192
49 -23 91 -41 93 -41 2 0 34 -14 71 -31 38 -17 112 -51 167 -75 l99 -44 19 22
c11 13 50 56 86 97 37 41 81 90 97 109 17 19 53 59 80 88 l50 53 116 -77 c137
-93 373 -215 522 -271 102 -39 310 -106 359 -115 13 -2 43 -9 68 -14 25 -6 65
-13 90 -17 25 -3 53 -8 63 -11 67 -20 275 -33 492 -29 132 1 251 5 265 8 14 3
50 8 80 12 61 6 288 51 335 65 133 41 263 83 280 90 11 5 65 27 120 50 158 66
368 183 496 276 l47 34 63 -72 c35 -40 71 -79 79 -88 63 -68 177 -195 183
-207 10 -16 25 -12 117 30 36 16 121 54 190 84 69 30 148 65 175 78 28 13 152
69 276 124 125 55 255 113 290 128 34 15 144 64 243 108 l181 81 1 34 c0 19
-3 60 -7 90 -7 53 -12 99 -24 225 -3 33 -8 78 -11 100 -9 77 -20 175 -29 270
-3 33 -8 78 -10 100 -2 22 -9 87 -15 145 -6 58 -13 121 -15 140 -2 19 -7 64
-10 100 -3 36 -8 72 -10 80 -2 8 -7 53 -10 99 -4 47 -9 94 -11 105 -2 12 -5
38 -6 59 -1 29 -7 41 -22 47 -17 6 -203 48 -341 76 -11 2 -44 9 -73 15 l-53
11 8 91 c14 173 8 478 -13 607 -8 51 -33 201 -39 229 -59 300 -217 677 -401
957 -166 253 -398 505 -630 684 -152 118 -283 201 -454 289 l-137 71 37 112
c21 62 56 169 78 238 l39 124 -21 16 c-31 24 -411 300 -458 333 -45 31 -345
249 -423 307 -170 126 -386 280 -392 280 -5 -1 -109 -75 -233 -165z m-797
-1580 c25 -77 48 -149 51 -161 6 -18 -3 -25 -61 -53 -38 -18 -77 -37 -88 -44
-224 -137 -336 -220 -474 -352 -467 -449 -713 -1038 -706 -1691 l2 -162 -126
-27 c-175 -38 -174 -37 -196 -39 -17 -1 -21 7 -26 49 -7 56 -4 456 4 495 3 14
8 48 11 75 43 342 175 717 360 1020 55 91 56 92 129 193 253 348 585 624 992
825 48 24 72 31 76 24 4 -7 27 -75 52 -152z m2243 89 c390 -202 736 -514 989
-893 111 -167 239 -430 299 -613 49 -150 78 -264 91 -355 4 -21 8 -45 10 -53
3 -8 7 -37 11 -65 3 -27 8 -61 11 -75 6 -34 11 -483 6 -542 -4 -41 -7 -46 -26
-42 -12 3 -56 11 -97 20 -41 8 -84 17 -95 20 -11 2 -47 10 -80 17 l-59 12 1
190 c1 105 -2 217 -7 250 -4 33 -11 84 -14 113 -4 30 -15 95 -26 145 -149 674
-587 1242 -1206 1563 l-52 27 30 91 c16 50 32 98 35 106 3 8 7 20 9 27 10 48
38 113 48 113 8 0 62 -25 122 -56z m-2068 -625 l57 -174 799 0 799 0 55 165
c30 91 56 167 58 169 5 6 155 -79 246 -141 421 -282 736 -724 862 -1208 22
-82 30 -125 51 -249 17 -103 26 -444 11 -458 -3 -3 -76 9 -163 27 -87 18 -167
34 -178 34 -18 1 -51 -51 -207 -324 -11 -19 -63 -108 -114 -197 -52 -90 -136
-236 -188 -325 -51 -90 -102 -179 -113 -198 -11 -19 -59 -102 -107 -184 l-87
-149 28 -31 c15 -16 33 -35 38 -42 33 -38 94 -105 131 -144 l44 -45 -53 -35
c-53 -36 -65 -42 -177 -101 -168 -89 -455 -181 -635 -205 -16 -2 -48 -6 -70
-10 -81 -13 -390 -12 -495 1 -234 30 -456 93 -646 184 -109 52 -227 118 -262
148 l-22 18 37 41 c90 97 189 208 200 224 12 16 -4 51 -87 190 -17 29 -365
634 -391 679 -45 79 -301 526 -304 529 -1 1 -26 -3 -56 -9 -30 -6 -65 -12 -79
-15 -36 -6 -212 -45 -232 -50 -16 -5 -17 8 -17 163 1 161 5 201 30 358 29 182
96 388 185 566 201 400 496 707 893 926 52 29 97 51 98 49 2 -2 30 -82 61
-177z m-326 -3706 c48 -29 127 -71 175 -94 83 -39 280 -117 313 -124 8 -2 49
-13 90 -24 167 -47 386 -75 590 -75 105 0 278 11 302 19 7 2 31 6 54 9 253 31
613 166 852 318 l95 61 44 -49 c25 -27 75 -82 111 -123 37 -40 70 -79 74 -86
5 -8 -25 -33 -87 -73 -52 -34 -97 -62 -100 -62 -4 0 -19 -8 -33 -18 -85 -59
-308 -158 -488 -217 -272 -89 -523 -129 -819 -129 -309 0 -514 32 -848 134
-180 55 -531 232 -675 341 l-23 17 47 54 c26 29 78 88 117 131 l70 77 26 -17
c14 -10 65 -41 113 -70z"/>
<path d="M2653 4268 c-6 -13 -120 -212 -253 -443 -134 -231 -253 -439 -266
-462 -35 -61 -153 -265 -164 -283 -5 -8 -31 -55 -59 -103 l-50 -89 258 -446
c142 -246 271 -470 287 -498 16 -29 81 -142 144 -252 l115 -201 810 -1 811 0
128 223 c70 122 132 229 137 237 37 60 209 363 209 367 0 4 6 14 14 22 7 9 28
43 46 76 18 33 45 80 59 105 14 25 33 57 41 71 8 15 50 88 93 163 l79 136 -24
43 c-21 36 -188 326 -446 771 -41 72 -82 144 -92 160 -9 17 -61 108 -115 201
-54 94 -106 182 -114 197 l-16 28 -811 0 -811 0 -10 -22z"/>
</g>
</svg>
