<?xml version="1.0" standalone="no"?>
<!DOCTYPE svg PUBLIC "-//W3C//DTD SVG 20010904//EN"
 "http://www.w3.org/TR/2001/REC-SVG-20010904/DTD/svg10.dtd">
<svg version="1.0" xmlns="http://www.w3.org/2000/svg"
 width="541.000000pt" height="541.000000pt" viewBox="0 0 541.000000 541.000000"
 preserveAspectRatio="xMidYMid meet">
<metadata>
Created by potrace 1.11, written by Peter Selinger 2001-2013
</metadata>
<g transform="translate(0.000000,541.000000) scale(0.100000,-0.100000)"
fill="#000000" stroke="none">
<path d="M1900 5026 c-306 -108 -539 -242 -798 -459 l-82 -69 2 -337 3 -336
385 -222 c212 -123 390 -223 395 -222 6 0 183 100 395 223 l385 223 3 451 2
450 -280 162 c-154 89 -288 164 -298 166 -9 2 -60 -11 -112 -30z"/>
<path d="M3107 4889 l-277 -162 2 -449 3 -450 195 -112 c107 -62 281 -162 386
-222 l190 -111 385 222 384 221 0 334 0 334 -100 84 c-137 116 -343 250 -499
327 -139 67 -311 134 -361 141 -24 3 -81 -26 -308 -157z"/>
<path d="M2310 3395 l-385 -224 0 -451 0 -451 389 -225 c213 -123 389 -224
391 -224 2 0 178 101 391 224 l389 225 0 451 0 451 -389 225 c-213 123 -391
224 -395 223 -3 0 -179 -101 -391 -224z"/>
<path d="M4113 3397 l-383 -222 0 -455 0 -455 382 -220 c209 -121 385 -222
390 -223 4 -2 138 71 297 162 l289 167 21 112 c57 307 52 676 -14 963 l-16 69
-283 163 c-156 89 -287 162 -292 161 -5 0 -181 -101 -391 -222z"/>
<path d="M606 3446 c-203 -118 -281 -168 -288 -186 -18 -50 -50 -281 -56 -412
-4 -76 -4 -200 0 -275 7 -155 42 -392 61 -410 17 -17 566 -333 579 -333 5 0
183 100 394 221 l384 222 0 447 0 447 -384 222 c-211 121 -390 221 -397 220
-8 0 -140 -73 -293 -163z"/>
<path d="M1410 1837 l-385 -222 -3 -346 -2 -347 82 -69 c173 -146 324 -246
513 -339 132 -64 333 -144 366 -144 9 0 151 77 313 171 l296 171 -2 451 -3
450 -385 223 c-212 123 -389 223 -395 223 -5 0 -183 -99 -395 -222z"/>
<path d="M3220 1834 l-385 -223 -3 -449 -2 -449 296 -171 296 -171 87 31 c281
98 564 264 799 467 l72 63 -2 341 -3 340 -345 199 c-190 110 -363 210 -385
222 l-40 23 -385 -223z"/>
</g>
</svg>
