<?xml version="1.0" encoding="UTF-8"?>
<svg width="58px" height="58px" viewBox="0 0 58 58" version="1.1" xmlns="http://www.w3.org/2000/svg" xmlns:xlink="http://www.w3.org/1999/xlink">
    <!-- Generator: Sketch 50 (54983) - http://www.bohemiancoding.com/sketch -->
    <title>Artboard</title>
    <desc>Created with Sketch.</desc>
    <defs></defs>
    <g id="Artboard" stroke="none" stroke-width="1" fill="none" fill-rule="evenodd" opacity="0.57734375">
        <g id="competitions" transform="translate(6.000000, 6.000000)" fill="#000000" fill-rule="nonzero">
            <path d="M23.5,2.87892315e-15 C10.5213084,4.31838473e-15 0,10.5213084 0,23.5 C-1.43946158e-15,36.4786916 10.5213084,47 23.5,47 C36.4786916,47 47,36.4786916 47,23.5 C47,17.2674125 44.5241143,11.2900955 40.1170094,6.88299064 C35.7099045,2.47588575 29.7325875,0 23.5,2.87892315e-15 Z M40.42,10.9558621 L38.1672414,17.8843103 L32.2922414,19.7886207 L24.3103448,13.9946552 L24.3103448,7.81172414 L30.2096552,3.525 C34.2901663,4.90486173 37.8523119,7.49731213 40.42,10.9558621 Z M31.7493103,42.8834483 L33.5563793,37.3325862 L39.3746552,37.3325862 C37.2827208,39.7328454 34.676235,41.6302341 31.7493103,42.8834483 Z M33.37,35.7118966 L29.7072414,30.6715517 L32.737931,21.3444828 L38.6696552,19.4482759 L44.5689655,23.7106897 C44.5293824,28.0183809 43.1626528,32.2091193 40.655,35.7118966 L33.37,35.7118966 Z M7.62534483,37.3325862 L13.4517241,37.3325862 L15.2587931,42.8834483 C12.3289504,41.6312863 9.71960224,39.7338304 7.62534483,37.3325862 Z M13.6218966,35.7118966 L6.3287931,35.7118966 C3.82690258,32.2072065 2.46588375,28.0166267 2.43103448,23.7106897 L8.33034483,19.4482759 L14.2539655,21.3687931 L17.2846552,30.6958621 L13.6218966,35.7118966 Z M5.43741379,12.6737931 L7.23637931,18.2165517 L2.51206897,21.6443103 C2.79144785,18.4704054 3.79200156,15.4022255 5.43741379,12.6737931 Z M18.7675862,29.9827586 L15.8341379,20.9717241 L23.5,15.3965517 L31.1658621,20.9636207 L28.2324138,29.9827586 L18.7675862,29.9827586 Z M23.5,2.43103448 C25.0902132,2.43314405 26.6750757,2.61528091 28.2243103,2.97396552 L23.5,6.40172414 L18.7756897,2.97396552 C20.3249243,2.61528091 21.9097868,2.43314405 23.5,2.43103448 Z M44.4798276,21.6443103 L39.7555172,18.2165517 L41.5544828,12.6737931 C43.199895,15.4022255 44.2004487,18.4704054 44.4798276,21.6443103 Z M16.7903448,3.53310345 L22.6896552,7.81172414 L22.6896552,13.9865517 L14.7077586,19.7886207 L8.83275862,17.8843103 L6.58,10.9558621 C9.14887452,7.50031572 12.7108946,4.91078366 16.7903448,3.53310345 Z M17.1874138,43.6046552 L14.9346552,36.6681034 L18.637931,31.6034483 L28.362069,31.6034483 L32.0410345,36.6681034 L29.7882759,43.6046552 C25.6813289,44.8935016 21.2781538,44.8935016 17.1712069,43.6046552 L17.1874138,43.6046552 Z" id="Shape"></path>
        </g>
    </g>
</svg>